<svg enable-background="new 0 0 648 648" height="316.227766" viewBox="0 0 648 648" width="316.227766" xmlns="http://www.w3.org/2000/svg"><path d="m523.19 237.22c-16.48-37.54-43.18-69.57-77.26-92.7-35.97-24.4-77.99-37.3-121.52-37.3s-85.55 12.9-121.52 37.3c-34.08 23.12-60.78 55.16-77.26 92.7-73.71 19.35-89.22 43.49-89.22 60.37l.08 91.94c1.03 15.42 17.23 44.24 114.05 64.36 19.54 26.12 45.07 47.85 73.89 62.88 30.66 15.99 65.23 24.44 99.98 24.44s69.32-8.45 99.98-24.44c28.81-15.02 54.35-36.76 73.89-62.88 96.82-20.12 113.03-48.95 114.06-64.51l.07-91.8c0-16.87-15.51-41.01-89.22-60.36z" fill="#fff"/><path d="m518.09 243.18c-31.77-75.64-106.62-128.91-193.67-128.91s-161.9 53.26-193.67 128.91c-53.77 13.68-87.29 33-87.29 54.41l.06 91.47c0-19.25 27.03-35.33 71.56-48.62 8.31 108.22 99.02 193.73 209.33 193.73s201.02-85.51 209.33-193.73c44.53 13.29 71.56 29.38 71.56 48.62l.06-91.47c.01-21.41-33.5-40.73-87.27-54.41z" fill="#9ea2a2"/><path d="m605.12 386.45c-.04-.33-.07-.66-.13-.98-.07-.37-.16-.74-.25-1.1-.05-.22-.09-.44-.15-.66-.12-.45-.27-.89-.42-1.34-.04-.13-.08-.27-.13-.4-.19-.52-.4-1.05-.63-1.57-.02-.05-.04-.1-.06-.14-2.89-6.42-8.94-12.45-17.72-18.12-13.96 9.25-35.16 17.96-60.9 24.96v.01c-3.45 10.95-7.76 21.52-12.88 31.62v.01c-5.11 10.09-11.01 19.72-17.62 28.8 66.27-13.46 109.49-34.61 111.09-58.48 0-.61-.03-1.21-.08-1.81-.04-.27-.08-.53-.12-.8z" fill="#707271"/><path d="m43.71 386.45c.04-.33.07-.66.13-.98.07-.37.16-.74.25-1.1.05-.22.09-.44.15-.66.12-.45.27-.89.42-1.34.04-.13.08-.27.13-.4.19-.52.4-1.05.63-1.57.02-.05.04-.1.06-.14 2.89-6.42 8.94-12.45 17.72-18.12 13.96 9.25 35.16 17.96 60.9 24.96v.01c3.45 10.95 7.76 21.52 12.88 31.62v.01c5.11 10.09 11.01 19.72 17.62 28.8-66.27-13.46-109.49-34.61-111.08-58.47 0-.61.03-1.21.08-1.81.02-.28.07-.54.11-.81z" fill="#707271"/><circle cx="324.41" cy="324.22" fill="#373a36" r="199.02"/><path d="m578.66 275.69c-13.22-8.36-33.21-16.25-57.82-22.83-3.83-1.02-7.76-2.01-11.77-2.96-29.45-73.1-101.02-124.7-184.66-124.7s-155.21 51.6-184.66 124.7c-4.01.96-7.94 1.94-11.77 2.96-24.6 6.58-44.6 14.47-57.82 22.83-8.23 5.2-18.04 13.22-18.04 21.9v62.64c14.88-12.02 38.89-22.51 71.37-31.2.64-.17 1.3-.34 1.95-.51 2.29 107.92 90.49 194.71 198.96 194.71s196.67-86.79 198.96-194.71c.65.17 1.31.34 1.95.51 32.48 8.68 56.49 19.18 71.37 31.2v-62.64c.01-8.68-9.8-16.7-18.02-21.9zm-128.05-76.57c.71-1.51 2.72-1.87 3.88-.67 13.23 13.68 24.31 29.44 32.73 46.74-1.67-.32-3.34-.64-5.03-.95-10.82-12.21-22.95-23.22-36.23-32.75 1.21-4.28 2.77-8.41 4.65-12.37zm-46.19-37.21c12.23 6.04 23.68 13.42 34.16 21.95 2.25 1.83 2.9 4.97 1.59 7.55-2.06 4.05-3.83 8.27-5.27 12.64-9.58-6.03-19.65-11.35-30.15-15.86-1.4-7.54-3.09-15-5.04-22.38-.75-2.79 2.13-5.18 4.71-3.9zm-53.69-16.71c9.1 1.32 17.97 3.32 26.58 5.95 3.24.99 5.75 3.53 6.75 6.76 2.51 8.12 4.69 16.38 6.51 24.77-10.46-3.65-21.28-6.53-32.4-8.56-1.4-4.64-3.14-9.21-5.22-13.69-1.65-3.54-3.49-6.96-5.51-10.24-1.46-2.37.52-5.39 3.29-4.99zm154.62 179.02c0 32.13-8.38 62.31-23.07 88.47-.87 1.55-3.25.65-2.87-1.09l.02-.1c7.01-31.37 5.48-63.32-4.08-93.14-.84-2.63-1.73-5.26-2.7-7.86-.44-1.18-1.49-2.03-2.73-2.23l-8.14-1.33c-2-.33-3.6 1.66-2.83 3.54.76 1.87 1.48 3.75 2.16 5.63 10.71 29.42 12.86 61.32 5.86 92.61-.41 1.81-.84 3.62-1.3 5.41-7.37 28.52-27.66 51.8-54.63 63.64-22.72 9.97-47.79 15.58-74.12 15.74-11.38.07-22.52-.91-33.33-2.83-4.45-.79-5.99-6.43-2.54-9.36 6.29-5.34 12.39-10.95 18.29-16.85 4.21-4.21 8.28-8.53 12.22-12.94 1.67-1.88 2.54-4.33 2.47-6.85l-.34-10.83c-.05-1.64-2.1-2.32-3.14-1.05-13.8 16.93-29.42 32.31-46.57 45.85-4.32 3.41-10.14 4.22-15.27 2.2-24.42-9.59-46.31-24.26-64.41-42.7-3.65-3.72-5.29-8.99-4.17-14.08 4.85-22.03 13.67-43.07 26.08-62 1.07-1.63.3-3.83-1.56-4.41-2.3-.71-4.52-1.47-6.64-2.28-1.23-.47-2.64-.04-3.35 1.07-10.35 16.09-18.3 33.58-23.64 51.86-1.27 4.37-7.08 5.28-9.58 1.48-16.73-25.47-27.39-55.29-29.95-87.34-.4-4.96-.61-9.96-.61-15.02 0-.56 0-1.12.01-1.68.21-23.36 8.92-45.76 24.28-63.03 2.57-2.89 5.31-5.66 8.25-8.24 26.72-23.49 59.57-40.16 95.81-47.28 1.07-4.37 2.29-8.9 3.69-13.64-35.65 5.94-68.4 20.56-96.01 41.59-2.58 1.97-5.85-1.35-3.83-3.88 33.53-41.9 85.3-68.57 143.28-67.96.01.01.02.01.04.02 6.03 6.61 11.1 14.16 14.99 22.5.95 2.04 1.8 4.12 2.59 6.2-8.23-.95-16.59-1.45-25.07-1.45-3.97 0-7.92.12-11.83.33 1.16 4.06 2.22 8.26 3.16 12.63 2.88-.12 5.76-.2 8.67-.2 9.83 0 19.5.71 28.97 2.05.78 3.74 1.31 7.52 1.59 11.31.08 1.07.83 1.96 1.86 2.24 4.1 1.1 7.82 2.5 11.15 4.17-.01-5.14-.42-10.28-1.21-15.37 11.04 2.32 21.76 5.54 32.08 9.56 1.69 10.31 2.85 20.8 3.45 31.44.09 1.68 1.33 3.07 2.99 3.34l7.65 1.25c1.22.2 2.33-.78 2.27-2.02-.43-9.42-1.28-18.76-2.53-28.01 8.48 4.05 16.63 8.67 24.42 13.8-.99 5.55-1.46 11.13-1.44 16.67.01 1.27.63 2.41 1.61 3.11.46.33 1 .57 1.59.67l7.75 1.26c.64.1 1.22-.17 1.57-.64.22-.29.34-.66.32-1.06-.18-3.88-.08-7.79.31-11.7 6.24 4.76 12.2 9.88 17.85 15.31 17.33 16.66 31.74 36.31 42.42 58.13 1.16 8.28 1.78 16.73 1.78 25.33-.01.01-.01.02-.01.04z" fill="#061922"/><path d="m365.83 312.8.34-28.63c-.03-13.44-14-15.69-24.31-15.52 6.92-2.29 15.24-6.2 21.27-12.71 6.32-5.84 10.83-14.06 10.05-25.6-1.32-19.42-25.6-29.09-65.85-25.19-.66.06-1.32.13-1.97.2-1.89-14.35-4.83-28.25-9.3-41.09l-1.99 1.98c-5.35 16.6-8.55 29.83-10.41 42.11-24.02 4.14-40.85 9.65-40.85 9.65l-1.98 1.98s19.43-1.76 41.57-1.45c-2.46 25.17.05 49.08-.03 94.25-35.77-1.01-67.15 4.94-74.83 14.49-2.52 2.08-3.86 4.36-3.78 6.81.39 10.95 32.91 21 78.62 24.84l1.95 62.08 1.99-1.99 3.21-42.1c.01-.69.09-1.27.22-1.77.96.13 1.87 1.36 1.87 3.5l1.41 55.44 1.99-1.98 3.41-45.12c-.01-1.01.1-1.84.29-2.5.97.17 1.86 1.59 1.79 4.13l1.58 57.8 1.98-1.98 2.73-84.12c5.25.17 10.61.26 16.07.26 5.78 0 11.47-.1 17.04-.28l2.76 87.7 1.98-1.98 2.36-45.9c.01-.92.11-1.69.28-2.31.9.21 1.73 1.55 1.73 3.92l2.37 64.37 1.98-1.98 2.4-55.61c.03-.79.14-1.46.32-2.02 1.14-.01 2.3 1.35 2.35 4.01l1.98 73.71 1.98-1.99 2.89-123.43c39.06-3.41 68.72-11.29 76.07-20.34 2.44-2.05 3.75-4.17 3.75-6.33-.58-12.04-36.71-21.32-79.28-19.31m-83.87 33.07c-31.31-3.02-52.46-9.37-52.46-17.4 0-.59.17-1.15.5-1.69 7.34-5.16 29.83-8.42 52.36-11.8-.03 8.83-.16 18.45-.45 29.04zm63.79-107.79c1.19 8.86-1.35 15.55-5.92 20.6-8.17 7.41-20.98 10.78-31.4 12.31.18-16.72-.06-34.07-1.51-51.1 20.1 2.15 37.35 7.22 38.83 18.19m-5.86 109.49c-4.91.14-9.93.22-15.06.22-6.04 0-11.93-.1-17.64-.3l.23-7.14c-.54-18.08.59-40.75.95-64.96 14.66 1.7 32.35 5.88 32.04 16.19zm77.86-13.95c-7.29 5.75-26.7 10.2-52.31 12.48l.37-30.79c29.32 3.82 53.11 8.11 53.11 15.14 0 1.09-.4 2.15-1.17 3.17" fill="#9ea2a2"/><path d="m445.08 332.09c-.55-12.02-36.68-21.3-79.25-19.3l.34-28.63c-.05-17.72-24.31-15.99-32.49-14.91 9.55-1.73 41.47-9.7 39.5-38.93-1.32-19.42-25.6-29.09-65.85-25.19-.66.06-1.32.13-1.97.2-1.89-14.35-4.83-28.25-9.3-41.09-5.6 17.36-8.85 31.04-10.67 43.8-24.95 4.17-42.59 9.94-42.59 9.94s19.43-1.76 41.57-1.45c-2.5 25.55.12 49.79-.03 96.29-42.31-1.49-79.04 6.75-78.6 19.25.38 10.95 32.91 21.01 78.62 24.85l1.94 62.07 3.21-42.1c.1-5.22 4.08-4.74 4.08-.26l1.42 55.44 3.41-45.12c-.05-6.09 4.21-5.8 4.06-.35l1.57 57.8 2.79-86.15c5.86.21 11.87.32 17.99.32 5.78 0 11.47-.1 17.04-.28l2.76 87.69 2.36-45.9c.03-5.85 3.99-5.55 3.98-.37l2.37 64.37 2.41-55.61c.18-5.46 4.55-5.22 4.65 0l1.98 73.71 2.93-125.16v-.08c46.22-3.81 79.77-13.88 79.77-24.85m-97.35-95.99c3.27 24.29-21.5 32.28-39.29 34.89.19-17.44-.08-35.58-1.7-53.3 21.01 2.01 39.46 7.05 40.99 18.41m-118.23 92.37c0-7.42 27.4-11.34 54.84-15.46-.03 8.82-.16 18.45-.45 29.03l.13 4.03c-32.44-2.94-54.52-9.4-54.52-17.6m77.69 19.02.23-7.14c-.56-18.62.66-42.12.99-67.16 14.99 1.54 34.31 5.62 33.99 16.4l-.55 57.91c-5.52.18-11.21.28-17.02.28-6.04.01-11.93-.09-17.64-.29m58.25-1.39.39-33.03c30.21 3.9 55.06 8.22 55.06 15.41.01 8.22-22.62 14.7-55.45 17.62" fill="#ce1141"/><path d="m114.37 270.53c-3.76 1.26-7.52 2.55-11.26 3.88-2.4.85-4.35 3.57-4.35 6.03v38.74c0 2.46 1.96 3.76 4.35 2.91 3.75-1.33 7.5-2.62 11.26-3.88 2.41-.81 4.38-3.46 4.38-5.92 0-12.91 0-25.83 0-38.74.01-2.46-1.97-3.83-4.38-3.02zm-2.88 41.24c-1.84.62-3.68 1.26-5.51 1.9 0-10.95 0-21.91 0-32.86 1.83-.64 3.67-1.27 5.51-1.9zm116.12-68.32c-3.89.57-7.77 1.18-11.64 1.83-2.48.41-4.51 2.78-4.51 5.24v38.74c0 2.46 2.03 4.12 4.51 3.71 3.88-.64 7.76-1.25 11.64-1.83 2.49-.37 4.52-2.66 4.52-5.12 0-12.91 0-25.83 0-38.74 0-2.47-2.03-4.2-4.52-3.83zm-2.97 40.71c-1.9.29-3.8.59-5.7.89 0-10.95 0-21.91 0-32.86 1.9-.31 3.8-.6 5.7-.89zm-84.45-21.68c2.44-.71 4.89-1.4 7.34-2.08v43.21c0 2.46-2 5.02-4.43 5.72-3.8 1.08-7.6 2.2-11.39 3.35-2.42.74-4.4-.65-4.4-3.11 0-14.4 0-28.81 0-43.21 2.43-.76 4.87-1.5 7.31-2.23v40.27c1.86-.56 3.71-1.1 5.57-1.64 0-13.44 0-26.86 0-40.28zm-57.04 19.38c2.39-.93 4.78-1.85 7.17-2.76v47.69c-2.4.91-4.79 1.83-7.17 2.76 0-6.71 0-13.42 0-20.14-1.66.65-3.32 1.31-4.97 1.97v20.14c-2.38.95-4.76 1.92-7.13 2.91 0-15.9 0-31.79 0-47.69 2.37-.98 4.75-1.95 7.13-2.91v20.14c1.66-.66 3.31-1.32 4.97-1.97 0-6.72 0-13.43 0-20.14zm100.61-30.42c6.8-1.48 13.62-2.85 20.46-4.11v7.41c-2.17.4-4.35.81-6.52 1.24v40.27c-2.48.48-4.97.98-7.45 1.5 0-13.42 0-26.85 0-40.27-2.17.45-4.33.91-6.5 1.38.01-2.48.01-4.95.01-7.42zm76.84-12.03v47.69c-2.51.24-5.02.5-7.53.77 0-2.78 0-5.55 0-8.33-1.74-4.97-3.49-9.93-5.23-14.88v23.8c-2.51.29-5.01.6-7.52.92 0-15.9 0-31.79 0-47.69 2.45-.31 4.91-.61 7.37-.9 1.79 5.09 3.59 10.2 5.38 15.3 0-5.3 0-10.61 0-15.91 2.51-.27 5.02-.52 7.53-.77zm-84.02 18.11v5.55c-2.47.57-4.94 1.15-7.41 1.74 0-.87 0-1.74 0-2.61-1.88.45-3.75.91-5.62 1.38v9.84c3.56 1.67 7.12 3.38 10.68 5.11 1.74.85 2.35 2.38 2.35 4.43v13.3c0 2.46-2.01 4.93-4.47 5.51-3.84.91-7.67 1.85-11.49 2.83-2.45.62-4.45-.86-4.45-3.32 0-1.85 0-3.7 0-5.55 2.46-.65 4.92-1.28 7.38-1.89v2.61c1.87-.47 3.75-.93 5.62-1.38 0-3.28 0-6.56 0-9.84-3.56-1.71-7.12-3.38-10.67-5.03-1.73-.8-2.33-2.31-2.33-4.36 0-4.43 0-8.87 0-13.3 0-2.46 2-5 4.45-5.62 3.82-.98 7.66-1.92 11.49-2.83 2.45-.58 4.46.97 4.47 3.43zm257.8-11.99c-3.88-.65-7.76-1.27-11.64-1.85-2.49-.37-4.52 1.35-4.52 3.81v38.74c0 2.46 2.03 4.76 4.52 5.13 3.88.58 7.76 1.2 11.64 1.85 2.48.42 4.51-1.24 4.51-3.7 0-12.91 0-25.83 0-38.74 0-2.46-2.03-4.83-4.51-5.24zm-2.97 39.78c-1.9-.31-3.8-.61-5.7-.91 0-10.95 0-21.91 0-32.86 1.9.29 3.8.6 5.7.91zm100.5-15.62c6.66 2.2 13.29 4.5 19.89 6.92v7.41c-2.1-.77-4.2-1.52-6.31-2.27v40.27c-2.41-.85-4.82-1.69-7.24-2.52 0-13.42 0-26.85 0-40.27-2.11-.72-4.23-1.43-6.34-2.13 0-2.47 0-4.94 0-7.41zm38.75 24.16c0-.87 0-1.74 0-2.61-1.81-.73-3.63-1.44-5.44-2.15v9.84c3.45 3.91 6.89 7.85 10.32 11.82 1.67 1.94 2.25 3.85 2.26 5.9v13.3c0 2.46-1.93 3.67-4.3 2.71-3.7-1.5-7.41-2.97-11.12-4.4-2.38-.92-4.33-3.66-4.33-6.12 0-1.85 0-3.7 0-5.55 2.4.9 4.79 1.82 7.18 2.75v2.61c1.82.71 3.63 1.43 5.44 2.15 0-3.28 0-6.56 0-9.84-3.44-3.94-6.89-7.86-10.34-11.74-1.68-1.89-2.28-3.78-2.27-5.83 0-4.43 0-8.87 0-13.3 0-2.46 1.95-3.74 4.33-2.82 3.72 1.43 7.43 2.9 11.12 4.4 2.37.96 4.3 3.77 4.3 6.23v5.55c-2.39-.98-4.77-1.95-7.15-2.9zm-73.24-34.52c-2.55 7.26-5.1 14.53-7.65 21.82 2.55 8.61 5.1 17.23 7.65 25.86-2.58-.7-5.16-1.38-7.74-2.05-2.03-6.86-4.07-13.7-6.11-20.54v18.99c-2.46-.61-4.93-1.21-7.4-1.79 0-15.9 0-31.79 0-47.69 2.47.58 4.93 1.18 7.4 1.79v18.99c2.04-5.83 4.07-11.64 6.11-17.45 2.58.69 5.16 1.37 7.74 2.07zm-29.6-2.81v5.69c-2.47-.55-4.95-1.08-7.43-1.6 0-.92 0-1.83 0-2.75-1.89-.4-3.77-.78-5.66-1.16v32.86c1.89.38 3.77.77 5.66 1.16 0-.82 0-1.64 0-2.47 2.48.52 4.96 1.05 7.43 1.6v5.41c0 2.46-2.02 4.02-4.48 3.49-3.85-.83-7.71-1.62-11.57-2.37-2.47-.48-4.5-2.88-4.5-5.34 0-12.91 0-25.83 0-38.74 0-2.46 2.03-4.09 4.5-3.61 3.86.76 7.72 1.55 11.57 2.37 2.46.54 4.48 3 4.48 5.46zm-58.77 8.32c0-6.2 0-12.41 0-18.61 0-2.46-2.04-4.74-4.53-5.04-5.41-.66-10.82-1.25-16.24-1.78v47.69c2.51.24 5.02.5 7.53.77 0-6.71 0-13.42 0-20.14 1.01.11 2.03.22 3.04.34 1.1 6.84 2.2 13.68 3.3 20.52 2.54.3 5.08.61 7.61.94-1.12-6.99-2.24-13.98-3.37-20.97 1.57-.5 2.66-1.92 2.66-3.72zm-7.51-3.87c-1.91-.22-3.81-.44-5.72-.65 0-4.24 0-8.48 0-12.72 1.91.21 3.82.42 5.72.65zm104.14.66c6.67 1.9 13.31 3.9 19.93 6.02v7.41c-4.19-1.34-8.39-2.63-12.6-3.88v12.72c3.12.93 6.24 1.88 9.35 2.85v7.41c-3.11-.97-6.23-1.93-9.35-2.85v12.72c4.21 1.25 8.41 2.55 12.6 3.88v7.41c-6.62-2.11-13.27-4.12-19.93-6.02 0-15.88 0-31.78 0-47.67z" fill="#fff"/></svg>